<svg xmlns="http://www.w3.org/2000/svg" xmlns:xlink="http://www.w3.org/1999/xlink" width="500" zoomAndPan="magnify" viewBox="0 0 375 374.999991" height="500" preserveAspectRatio="xMidYMid meet" version="1.0"><defs><g/><clipPath id="f568d94001"><rect x="0" width="245" y="0" height="81"/></clipPath><clipPath id="7033b3f1cb"><path d="M 6 0.160156 L 66 0.160156 L 66 61 L 6 61 Z M 6 0.160156 " clip-rule="nonzero"/></clipPath><clipPath id="1ce684902e"><rect x="0" width="77" y="0" height="80"/></clipPath></defs><g transform="matrix(1, 0, 0, 1, 79, 144)"><g clip-path="url(#f568d94001)"><g fill="#002040" fill-opacity="1"><g transform="translate(2.02694, 62.618755)"><g><path d="M 36.5 -38.578125 C 37.125 -38.285156 37.601562 -37.890625 37.9375 -37.390625 C 38.269531 -36.890625 38.4375 -36.332031 38.4375 -35.71875 C 38.4375 -35.289062 38.316406 -34.835938 38.078125 -34.359375 L 22.9375 -2.421875 C 22.21875 -0.859375 21.117188 -0.078125 19.640625 -0.078125 C 18.835938 -0.078125 18.171875 -0.253906 17.640625 -0.609375 C 17.117188 -0.960938 16.644531 -1.566406 16.21875 -2.421875 L 1.078125 -34.359375 C 0.878906 -34.742188 0.78125 -35.171875 0.78125 -35.640625 C 0.78125 -36.929688 1.445312 -37.910156 2.78125 -38.578125 C 3.207031 -38.816406 3.707031 -38.9375 4.28125 -38.9375 C 4.851562 -38.9375 5.398438 -38.78125 5.921875 -38.46875 C 6.453125 -38.15625 6.859375 -37.710938 7.140625 -37.140625 L 19.578125 -10.359375 L 31.859375 -37.140625 C 32.148438 -37.710938 32.566406 -38.15625 33.109375 -38.46875 C 33.660156 -38.78125 34.242188 -38.9375 34.859375 -38.9375 C 35.484375 -38.9375 36.03125 -38.816406 36.5 -38.578125 Z M 36.5 -38.578125 "/></g></g></g><g fill="#002040" fill-opacity="1"><g transform="translate(41.17662, 62.618755)"><g><path d="M 24.140625 -39.359375 C 27.804688 -39.359375 31.128906 -38.488281 34.109375 -36.75 C 37.085938 -35.007812 39.445312 -32.628906 41.1875 -29.609375 C 42.925781 -26.585938 43.796875 -23.21875 43.796875 -19.5 L 43.796875 -3.578125 C 43.796875 -2.523438 43.445312 -1.648438 42.75 -0.953125 C 42.0625 -0.265625 41.191406 0.078125 40.140625 0.078125 C 39.097656 0.078125 38.226562 -0.265625 37.53125 -0.953125 C 36.84375 -1.648438 36.5 -2.523438 36.5 -3.578125 L 36.5 -6.21875 C 34.832031 -4.164062 32.804688 -2.566406 30.421875 -1.421875 C 28.046875 -0.285156 25.476562 0.28125 22.71875 0.28125 C 19.289062 0.28125 16.179688 -0.570312 13.390625 -2.28125 C 10.609375 -4 8.414062 -6.367188 6.8125 -9.390625 C 5.21875 -12.421875 4.421875 -15.789062 4.421875 -19.5 C 4.421875 -23.21875 5.28125 -26.585938 7 -29.609375 C 8.71875 -32.628906 11.085938 -35.007812 14.109375 -36.75 C 17.128906 -38.488281 20.472656 -39.359375 24.140625 -39.359375 Z M 24.140625 -6.140625 C 26.523438 -6.140625 28.679688 -6.722656 30.609375 -7.890625 C 32.535156 -9.054688 34.046875 -10.648438 35.140625 -12.671875 C 36.242188 -14.703125 36.796875 -16.976562 36.796875 -19.5 C 36.796875 -22.019531 36.242188 -24.304688 35.140625 -26.359375 C 34.046875 -28.410156 32.535156 -30.019531 30.609375 -31.1875 C 28.679688 -32.351562 26.523438 -32.9375 24.140625 -32.9375 C 21.765625 -32.9375 19.609375 -32.351562 17.671875 -31.1875 C 15.742188 -30.019531 14.222656 -28.410156 13.109375 -26.359375 C 11.992188 -24.304688 11.4375 -22.019531 11.4375 -19.5 C 11.4375 -16.976562 11.992188 -14.703125 13.109375 -12.671875 C 14.222656 -10.648438 15.742188 -9.054688 17.671875 -7.890625 C 19.609375 -6.722656 21.765625 -6.140625 24.140625 -6.140625 Z M 24.140625 -6.140625 "/></g></g></g><g fill="#002040" fill-opacity="1"><g transform="translate(89.399306, 62.618755)"><g><path d="M 25.859375 -39.4375 C 29.148438 -39.4375 32.101562 -38.71875 34.71875 -37.28125 C 37.332031 -35.851562 39.378906 -33.769531 40.859375 -31.03125 C 42.335938 -28.300781 43.078125 -25.003906 43.078125 -21.140625 L 43.078125 -3.578125 C 43.078125 -2.523438 42.726562 -1.648438 42.03125 -0.953125 C 41.34375 -0.265625 40.476562 0.078125 39.4375 0.078125 C 38.382812 0.078125 37.515625 -0.265625 36.828125 -0.953125 C 36.140625 -1.648438 35.796875 -2.523438 35.796875 -3.578125 L 35.796875 -21.140625 C 35.796875 -25.003906 34.757812 -27.921875 32.6875 -29.890625 C 30.613281 -31.867188 27.863281 -32.859375 24.4375 -32.859375 C 22.4375 -32.859375 20.613281 -32.453125 18.96875 -31.640625 C 17.320312 -30.835938 16.035156 -29.742188 15.109375 -28.359375 C 14.179688 -26.972656 13.71875 -25.425781 13.71875 -23.71875 L 13.71875 -3.578125 C 13.71875 -2.523438 13.382812 -1.648438 12.71875 -0.953125 C 12.050781 -0.265625 11.171875 0.078125 10.078125 0.078125 C 9.023438 0.078125 8.148438 -0.265625 7.453125 -0.953125 C 6.765625 -1.648438 6.421875 -2.523438 6.421875 -3.578125 L 6.421875 -35.4375 C 6.421875 -36.53125 6.765625 -37.410156 7.453125 -38.078125 C 8.148438 -38.742188 9.023438 -39.078125 10.078125 -39.078125 C 11.171875 -39.078125 12.050781 -38.742188 12.71875 -38.078125 C 13.382812 -37.410156 13.71875 -36.53125 13.71875 -35.4375 L 13.71875 -34.640625 C 15.238281 -36.171875 17.046875 -37.351562 19.140625 -38.1875 C 21.234375 -39.019531 23.472656 -39.4375 25.859375 -39.4375 Z M 25.859375 -39.4375 "/></g></g></g><g fill="#002040" fill-opacity="1"><g transform="translate(138.122071, 62.618755)"><g><path d="M 23.078125 -7.140625 C 23.929688 -7.140625 24.65625 -6.804688 25.25 -6.140625 C 25.84375 -5.472656 26.140625 -4.617188 26.140625 -3.578125 C 26.140625 -2.523438 25.742188 -1.664062 24.953125 -1 C 24.171875 -0.332031 23.164062 0 21.9375 0 L 20.640625 0 C 18.304688 0 16.175781 -0.601562 14.25 -1.8125 C 12.320312 -3.03125 10.8125 -4.6875 9.71875 -6.78125 C 8.625 -8.882812 8.078125 -11.242188 8.078125 -13.859375 L 8.078125 -31.5 L 4.78125 -31.5 C 3.78125 -31.5 2.96875 -31.785156 2.34375 -32.359375 C 1.726562 -32.929688 1.421875 -33.644531 1.421875 -34.5 C 1.421875 -35.457031 1.726562 -36.21875 2.34375 -36.78125 C 2.96875 -37.351562 3.78125 -37.640625 4.78125 -37.640625 L 8.078125 -37.640625 L 8.078125 -47.9375 C 8.078125 -48.976562 8.410156 -49.832031 9.078125 -50.5 C 9.742188 -51.164062 10.597656 -51.5 11.640625 -51.5 C 12.691406 -51.5 13.550781 -51.164062 14.21875 -50.5 C 14.882812 -49.832031 15.21875 -48.976562 15.21875 -47.9375 L 15.21875 -37.640625 L 21.28125 -37.640625 C 22.28125 -37.640625 23.085938 -37.351562 23.703125 -36.78125 C 24.328125 -36.21875 24.640625 -35.457031 24.640625 -34.5 C 24.640625 -33.644531 24.328125 -32.929688 23.703125 -32.359375 C 23.085938 -31.785156 22.28125 -31.5 21.28125 -31.5 L 15.21875 -31.5 L 15.21875 -13.859375 C 15.21875 -11.953125 15.738281 -10.351562 16.78125 -9.0625 C 17.832031 -7.78125 19.117188 -7.140625 20.640625 -7.140625 Z M 23.078125 -7.140625 "/></g></g></g><g fill="#002040" fill-opacity="1"><g transform="translate(166.769907, 62.618755)"><g><path d="M 36.296875 -38.71875 C 37.765625 -38.144531 38.5 -37.21875 38.5 -35.9375 C 38.5 -35.457031 38.359375 -34.882812 38.078125 -34.21875 L 16.21875 14.9375 C 15.644531 16.40625 14.71875 17.140625 13.4375 17.140625 C 12.957031 17.140625 12.382812 17 11.71875 16.71875 C 10.289062 16.09375 9.578125 15.164062 9.578125 13.9375 C 9.578125 13.363281 9.71875 12.789062 10 12.21875 L 17.140625 -3.859375 L 1.078125 -34.359375 C 0.835938 -34.785156 0.71875 -35.285156 0.71875 -35.859375 C 0.71875 -36.484375 0.90625 -37.054688 1.28125 -37.578125 C 1.664062 -38.097656 2.164062 -38.503906 2.78125 -38.796875 C 3.207031 -38.984375 3.6875 -39.078125 4.21875 -39.078125 C 5.550781 -39.078125 6.550781 -38.410156 7.21875 -37.078125 L 20.28125 -11.078125 L 31.796875 -37 C 32.410156 -38.382812 33.335938 -39.078125 34.578125 -39.078125 C 35.191406 -39.078125 35.765625 -38.957031 36.296875 -38.71875 Z M 36.296875 -38.71875 "/></g></g></g><g fill="#002040" fill-opacity="1"><g transform="translate(205.276601, 62.618755)"><g><path d="M 20.640625 0.28125 C 17.398438 0.28125 14.351562 -0.21875 11.5 -1.21875 C 8.644531 -2.21875 6.40625 -3.523438 4.78125 -5.140625 C 4.164062 -5.765625 3.859375 -6.503906 3.859375 -7.359375 C 3.859375 -8.503906 4.332031 -9.429688 5.28125 -10.140625 C 6.1875 -10.804688 7.019531 -11.140625 7.78125 -11.140625 C 8.738281 -11.140625 9.644531 -10.710938 10.5 -9.859375 C 11.40625 -8.859375 12.757812 -7.988281 14.5625 -7.25 C 16.375 -6.507812 18.304688 -6.140625 20.359375 -6.140625 C 23.078125 -6.140625 25.1875 -6.59375 26.6875 -7.5 C 28.1875 -8.40625 28.9375 -9.617188 28.9375 -11.140625 C 28.9375 -12.617188 28.195312 -13.84375 26.71875 -14.8125 C 25.238281 -15.789062 22.738281 -16.613281 19.21875 -17.28125 C 10.070312 -19.050781 5.5 -22.816406 5.5 -28.578125 C 5.5 -30.910156 6.1875 -32.882812 7.5625 -34.5 C 8.945312 -36.125 10.757812 -37.335938 13 -38.140625 C 15.238281 -38.953125 17.617188 -39.359375 20.140625 -39.359375 C 23.234375 -39.359375 26.003906 -38.859375 28.453125 -37.859375 C 30.910156 -36.859375 32.859375 -35.476562 34.296875 -33.71875 C 34.910156 -32.957031 35.21875 -32.195312 35.21875 -31.4375 C 35.21875 -30.625 34.8125 -29.882812 34 -29.21875 C 33.476562 -28.832031 32.8125 -28.640625 32 -28.640625 C 30.757812 -28.640625 29.640625 -29.09375 28.640625 -30 C 27.453125 -31.09375 26.191406 -31.863281 24.859375 -32.3125 C 23.523438 -32.769531 21.90625 -33 20 -33 C 17.8125 -33 16.015625 -32.628906 14.609375 -31.890625 C 13.203125 -31.160156 12.5 -30.128906 12.5 -28.796875 C 12.5 -27.835938 12.738281 -27.035156 13.21875 -26.390625 C 13.695312 -25.753906 14.601562 -25.160156 15.9375 -24.609375 C 17.269531 -24.054688 19.195312 -23.519531 21.71875 -23 C 26.90625 -21.957031 30.582031 -20.503906 32.75 -18.640625 C 34.914062 -16.785156 36 -14.382812 36 -11.4375 C 36 -9.238281 35.40625 -7.242188 34.21875 -5.453125 C 33.03125 -3.671875 31.28125 -2.269531 28.96875 -1.25 C 26.65625 -0.226562 23.878906 0.28125 20.640625 0.28125 Z M 20.640625 0.28125 "/></g></g></g></g></g><g transform="matrix(1, 0, 0, 1, 21, 146)"><g clip-path="url(#1ce684902e)"><g clip-path="url(#7033b3f1cb)"><g fill="#002040" fill-opacity="1"><g transform="translate(0.811212, 60.641412)"><g><path d="M 44 -52.21875 L 64.078125 -2.71875 C 64.367188 -2.050781 64.441406 -1.476562 64.296875 -1 C 64.242188 -0.8125 64.109375 -0.582031 63.890625 -0.3125 C 63.679688 -0.0507812 63.289062 0.078125 62.71875 0.078125 L 55.078125 0.078125 C 54.078125 0.078125 53.382812 -0.445312 53 -1.5 L 35.296875 -45.71875 C 35.242188 -45.8125 35.21875 -45.859375 35.21875 -45.859375 L 34.9375 -45.859375 C 34.9375 -45.859375 34.921875 -45.847656 34.890625 -45.828125 C 34.867188 -45.804688 34.835938 -45.75 34.796875 -45.65625 L 25.640625 -22.5 L 34.5 -22.5 C 35.5 -22.5 36.191406 -22.023438 36.578125 -21.078125 L 39.140625 -14.71875 C 39.378906 -13.90625 39.285156 -13.210938 38.859375 -12.640625 C 38.484375 -11.972656 37.863281 -11.640625 37 -11.640625 L 21.359375 -11.640625 L 17.28125 -1.421875 C 16.90625 -0.421875 16.238281 0.078125 15.28125 0.078125 L 7.421875 0.078125 C 6.859375 0.078125 6.46875 -0.0507812 6.25 -0.3125 C 6.03125 -0.582031 5.898438 -0.8125 5.859375 -1 C 5.710938 -1.425781 5.757812 -2 6 -2.71875 L 25.9375 -52.21875 C 26.882812 -54.738281 27.929688 -56.476562 29.078125 -57.4375 C 29.222656 -57.53125 29.390625 -57.644531 29.578125 -57.78125 C 29.765625 -57.925781 29.953125 -58.050781 30.140625 -58.15625 C 31.578125 -59.15625 33.222656 -59.65625 35.078125 -59.65625 C 37.023438 -59.65625 38.785156 -59.054688 40.359375 -57.859375 C 41.929688 -56.671875 43.003906 -55.148438 43.578125 -53.296875 C 43.671875 -53.148438 43.753906 -52.976562 43.828125 -52.78125 C 43.898438 -52.59375 43.957031 -52.40625 44 -52.21875 Z M 44 -52.21875 "/></g></g></g></g></g></g></svg>